{"title":"Before Midnight 2013 BLURRED 720p HDRip XviD AC3-Greekeagle12","uid":8689082,"size":1800522324,"categoryP":"video","categoryS":"hd___movies","magnet":"?xt=urn:btih:6c90c8998f67ab4fa23f3362ad6dfa913407c0c4&amp;dn=Before+Midnight+2013+BLURRED+720p+HDRip+XviD+AC3-Greekeagle12&amp;tr=udp%3A%2F%2Ftracker.openbittorrent.com%3A80&amp;tr=udp%3A%2F%2Fopen.demonii.com%3A1337&amp;tr=udp%3A%2F%2Ftracker.coppersurfer.tk%3A6969&amp;tr=udp%3A%2F%2Fexodus.desync.com%3A6969","seeders":1,"leechers":1,"uploader":"GREEKEAGLE12","files":-1,"time":1373850970,"description":"FILE: Before Midnight 2013 BLURRED 720p HDRip XviD AC3-Greekeagle12\nRE-ENCODE: GreekEagle12\nSOURCE: Before Midnight 2013 KORSUB 720p HDRip x264 AAC-JYK\n-------------------------------------------------------------------------------------\n\nUploader Notes\n--------------\nRe-encode and\n\n1) Blurred Hardcoded Korean Subtitles\n\n2) Cut few seconds at the begining\n\n3) Kept Aspect/resolution and Turned to Avi - Xvid &amp; AC3\n\n4) Included sample\n\n5) Included screenshots\n\nEnjoy...\n--------\n\nLanguages: English\nSubtitles: -\n-------------------------------------------------------------------------------------\n\nScreenShots\n-----------  &lt;a href=&quot;\nhttp://imageshack.us/a/img694/6486/k892.jpg&quot; rel=&quot;nofollow&quot; target=&quot;_NEW&quot;&gt;\nhttp://imageshack.us/a/img694/6486/k892.jpg&lt;/a&gt;\n  &lt;a href=&quot;\nhttp://imageshack.us/a/img832/3671/ipgd.jpg&quot; rel=&quot;nofollow&quot; target=&quot;_NEW&quot;&gt;\nhttp://imageshack.us/a/img832/3671/ipgd.jpg&lt;/a&gt;\n  &lt;a href=&quot;\nhttp://imageshack.us/a/img849/2010/koaf.jpg&quot; rel=&quot;nofollow&quot; target=&quot;_NEW&quot;&gt;\nhttp://imageshack.us/a/img849/2010/koaf.jpg&lt;/a&gt;\n  &lt;a href=&quot;\nhttp://imageshack.us/a/img62/5316/do60.jpg&quot; rel=&quot;nofollow&quot; target=&quot;_NEW&quot;&gt;\nhttp://imageshack.us/a/img62/5316/do60.jpg&lt;/a&gt;\n &lt;a href=&quot;\nhttp://imageshack.us/a/img191/420/q5q5.jpg&quot; rel=&quot;nofollow&quot; target=&quot;_NEW&quot;&gt;\nhttp://imageshack.us/a/img191/420/q5q5.jpg&lt;/a&gt;\n\n\nBefore Midnight\n\nPlot\n----\nWe meet Jesse and Celine nine years on in Greece. Almost two decades have passed since their first meeting on that train bound for Vienna.\n\nMedia Info\n----------\n\nGeneral\nComplete name                            : Before Midnight 2013 BLURRED 720p HDRip XviD AC3-Greekeagle12Before Midnight 2013 BLURRED 720p HDRip XviD AC3-Greekeagle12.avi\nFormat                                   : AVI\nFormat/Info                              : Audio Video Interleave\nFile size                                : 1.65 GiB\nDuration                                 : 1h 48mn\nOverall bit rate                         : 2 180 Kbps\nWriting library                          : VirtualDub build 32842/release\n\nVideo\nID                                       : 0\nFormat                                   : MPEG-4 Visual\nFormat profile                           : Advanced Simple@L5\nFormat settings, BVOP                    : 2\nFormat settings, QPel                    : No\nFormat settings, GMC                     : No warppoints\nFormat settings, Matrix                  : Default (H.263)\nMuxing mode                              : Packed bitstream\nCodec ID                                 : XVID\nCodec ID/Hint                            : XviD\nDuration                                 : 1h 48mn\nBit rate                                 : 1 977 Kbps\nWidth                                    : 1 280 pixels\nHeight                                   : 688 pixels\nDisplay aspect ratio                     : 1.85:1\nFrame rate                               : 29.970 fps\nColor space                              : YUV\nChroma subsampling                       : 4:2:0\nBit depth                                : 8 bits\nScan type                                : Progressive\nCompression mode                         : Lossy\nBits/(Pixel*Frame)                       : 0.075\nStream size                              : 1.50 GiB (91%)\nWriting library                          : XviD 64\n\nAudio\nID                                       : 1\nFormat                                   : AC-3\nFormat/Info                              : Audio Coding 3\nMode extension                           : CM (complete main)\nFormat settings, Endianness              : Big\nCodec ID                                 : 2000\nDuration                                 : 1h 48mn\nBit rate mode                            : Constant\nBit rate                                 : 192 Kbps\nChannel(s)                               : 2 channels\nChannel positions                        : Front: L R\nSampling rate                            : 44.1 KHz\nBit depth                                : 16 bits\nCompression mode                         : Lossy\nStream size                              : 149 MiB (9%)\nAlignment                                : Aligned on interleaves\nInterleave, duration                     : 35 ms (1.04 video frame)\nInterleave, preload duration             : 522 ms","torrent":{"xt":"urn:btih:6c90c8998f67ab4fa23f3362ad6dfa913407c0c4","amp;dn":"Before+Midnight+2013+BLURRED+720p+HDRip+XviD+AC3-Greekeagle12","amp;tr":["udp%3A%2F%2Ftracker.openbittorrent.com%3A80","udp%3A%2F%2Fopen.demonii.com%3A1337","udp%3A%2F%2Ftracker.coppersurfer.tk%3A6969","udp%3A%2F%2Fexodus.desync.com%3A6969"],"infoHash":"6c90c8998f67ab4fa23f3362ad6dfa913407c0c4","infoHashBuffer":{"type":"Buffer","data":[108,144,200,153,143,103,171,79,162,63,51,98,173,109,250,145,52,7,192,196]},"announce":[],"urlList":[]}}